<mxfile host="65bd71144e">
    <diagram id="QgMPuGgPR5AQqu9X52u9" name="Page-1">
        <mxGraphModel dx="744" dy="368" grid="1" gridSize="10" guides="1" tooltips="1" connect="1" arrows="1" fold="1" page="1" pageScale="1" pageWidth="850" pageHeight="1100" math="0" shadow="0">
            <root>
                <mxCell id="0"/>
                <mxCell id="1" parent="0"/>
                <mxCell id="5" value="&lt;p style=&quot;line-height: 120%;&quot;&gt;&lt;span style=&quot;text-align: center;&quot;&gt;zolang !ikZegGenoeg || !koffieContainerBijnaVol&lt;/span&gt;&lt;br&gt;&lt;/p&gt;" style="rounded=0;whiteSpace=wrap;html=1;align=left;fillColor=default;perimeterSpacing=0;horizontal=1;verticalAlign=top;" vertex="1" parent="1">
                    <mxGeometry x="470" y="220" width="340" height="70" as="geometry"/>
                </mxCell>
                <mxCell id="6" value="voeg zachtjes melk toe aan koffiecontainer" style="rounded=0;whiteSpace=wrap;html=1;" vertex="1" parent="1">
                    <mxGeometry x="510" y="260" width="300" height="30" as="geometry"/>
                </mxCell>
                <mxCell id="8" value="Buur gaat naar melklocatie" style="rounded=0;whiteSpace=wrap;html=1;fillColor=default;" vertex="1" parent="1">
                    <mxGeometry x="470" y="130" width="340" height="30" as="geometry"/>
                </mxCell>
                <mxCell id="9" value="Neemt melk mee naar de deur" style="rounded=0;whiteSpace=wrap;html=1;fillColor=default;" vertex="1" parent="1">
                    <mxGeometry x="470" y="160" width="340" height="30" as="geometry"/>
                </mxCell>
                <mxCell id="10" value="Opent melkcontainer" style="rounded=0;whiteSpace=wrap;html=1;fillColor=default;" vertex="1" parent="1">
                    <mxGeometry x="470" y="190" width="340" height="30" as="geometry"/>
                </mxCell>
                <mxCell id="34" value="&lt;p style=&quot;line-height: 120%;&quot;&gt;zolang buren &amp;amp;&amp;amp; !buurDoetOpen &amp;amp; !buurHeeftMelk&lt;/p&gt;" style="rounded=0;whiteSpace=wrap;html=1;align=left;fillColor=default;perimeterSpacing=0;horizontal=1;verticalAlign=top;" vertex="1" parent="1">
                    <mxGeometry x="100" y="90" width="340" height="220" as="geometry"/>
                </mxCell>
                <mxCell id="35" value="&lt;span style=&quot;text-align: left;&quot;&gt;melkInJeKoffieDoen()&lt;/span&gt;" style="rounded=0;whiteSpace=wrap;html=1;opacity=0;" vertex="1" parent="1">
                    <mxGeometry x="470" y="100" width="340" height="30" as="geometry"/>
                </mxCell>
                <mxCell id="36" value="" style="rounded=0;whiteSpace=wrap;html=1;fillColor=default;" vertex="1" parent="1">
                    <mxGeometry x="140" y="193.75" width="300" height="110" as="geometry"/>
                </mxCell>
                <mxCell id="37" value="Ja: melkInJeKoffieDoen()&lt;br&gt;Nee: Zwarte Koffie :')" style="rounded=0;whiteSpace=wrap;html=1;fillColor=default;opacity=0;" vertex="1" parent="1">
                    <mxGeometry x="140" y="273.75" width="300" height="30" as="geometry"/>
                </mxCell>
                <mxCell id="38" value="&lt;span style=&quot;text-align: left; background-color: rgb(42, 37, 47);&quot;&gt;buurHeeftMelk &amp;amp;&amp;amp; buurDoetOpen?&lt;br&gt;&lt;/span&gt;" style="triangle;whiteSpace=wrap;html=1;fillColor=default;rotation=90;horizontal=0;" vertex="1" parent="1">
                    <mxGeometry x="248.75" y="90" width="77.5" height="285" as="geometry"/>
                </mxCell>
                <mxCell id="39" value="Loopt naar de buren" style="rounded=0;whiteSpace=wrap;html=1;" vertex="1" parent="1">
                    <mxGeometry x="140" y="130" width="300" height="30" as="geometry"/>
                </mxCell>
                <mxCell id="40" value="Aanbellen" style="rounded=0;whiteSpace=wrap;html=1;" vertex="1" parent="1">
                    <mxGeometry x="140" y="160" width="300" height="30" as="geometry"/>
                </mxCell>
            </root>
        </mxGraphModel>
    </diagram>
</mxfile>